<svg width="100" height="100" viewBox="0 0 100 100" fill="none" xmlns="http://www.w3.org/2000/svg">
<path d="M23.4375 2H76.5625C88.4021 2 98 11.5979 98 23.4375V76.5625C98 88.4021 88.4021 98 76.5625 98H23.4375C11.5979 98 2 88.4021 2 76.5625V23.4375C2 11.5979 11.5979 2 23.4375 2Z" fill="#F02E65" stroke="white" stroke-width="4"/>
<path fill-rule="evenodd" clip-rule="evenodd" d="M62.4789 75.3129C57.8852 75.3129 53.5789 74.0816 49.8731 71.9305C47.0922 73.5402 44.002 74.6172 40.7582 75.0707C34.152 75.9945 27.4493 74.2562 22.1247 70.2383C19.4856 68.2496 17.2643 65.7605 15.5876 62.9133C13.9109 60.0656 12.8118 56.9156 12.353 53.6434C11.8942 50.3711 12.0847 47.0402 12.9137 43.8414C13.7427 40.6426 15.1939 37.6387 17.1843 35.0011C19.1748 32.3635 21.6655 30.1439 24.5141 28.4692C27.3627 26.7946 30.5133 25.6977 33.7862 25.2411C37.0589 24.7847 40.3895 24.9775 43.5875 25.8088C45.7949 26.3825 47.9094 27.2527 49.8746 28.3918C53.5805 26.2416 57.8859 25.0105 62.4789 25.0105C76.3699 25.0105 87.6301 36.2709 87.6301 50.1617C87.6301 64.0523 76.3699 75.3129 62.4789 75.3129ZM45.6629 31.4577L45.6707 31.4511C42.1781 29.884 38.2861 29.3128 34.4343 29.8514C29.0477 30.6047 24.1809 33.467 20.9046 37.8086C17.6284 42.1504 16.211 47.6152 16.9643 53.0023C17.7176 58.3887 20.5799 63.2555 24.9215 66.5316C29.263 69.8078 34.7283 71.2254 40.1148 70.4719C45.5016 69.7188 50.3684 66.8566 53.6445 62.5148C56.9207 58.173 58.3383 52.7082 57.5848 47.3215C57.2375 44.8363 56.441 42.4617 55.2574 40.3031C53.1141 36.4092 49.7418 33.2867 45.6629 31.4577Z" fill="white"/>
<path d="M37.9486 41.4598C37.9184 41.534 37.534 43.0445 37.1197 44.8359C36.69 46.6273 36.0089 49.4555 35.6247 51.1281C34.8837 54.193 34.4395 56.2066 34.4395 56.4734C34.4395 56.5469 34.8987 56.6066 35.4609 56.6066H36.483L36.9413 54.5629C37.2085 53.4527 37.8009 50.9059 38.2745 48.9074C38.7484 46.9082 39.3254 44.4805 39.5481 43.5027C39.7696 42.5254 39.9918 41.6379 40.0363 41.534C40.0813 41.4012 39.8289 41.357 39.0592 41.357C38.4815 41.357 37.9776 41.4012 37.9486 41.4598ZM29.9974 47.8707L28.6353 49.3516L29.0355 49.825C29.2569 50.0914 29.8646 50.7582 30.3828 51.3059L31.3304 52.3125H34.0251L32.7521 50.9351C32.0556 50.1957 31.4781 49.4848 31.4781 49.3961C31.4781 49.2926 32.0115 48.6266 32.6631 47.9156C33.3142 47.1906 33.8474 46.568 33.8474 46.4937C33.8474 46.4348 33.2847 46.3902 32.6038 46.3902H31.375L29.9974 47.8707ZM40.3617 46.4789C40.3617 46.5238 40.6137 46.8047 40.9238 47.1156C42.0797 48.2707 42.8938 49.2484 42.8492 49.4402C42.8199 49.5441 42.2567 50.2394 41.5762 50.9652L40.3477 52.3125H41.7242L43.1012 52.2977L44.359 50.9211C45.0555 50.1516 45.618 49.4695 45.618 49.3809C45.618 49.3074 45.0258 48.6113 44.2852 47.8269L42.9531 46.3902H41.6645C40.9391 46.3902 40.3617 46.4348 40.3617 46.4789Z" fill="white"/>
</svg>
