<svg width="97" height="108" viewBox="0 0 97 108" fill="none" xmlns="http://www.w3.org/2000/svg">
<path d="M94.0943 33.1097V33.1099C94.0966 39.9104 94.0977 50.109 94.0983 58.6073L94.0988 69.4425L94.0988 72.7089L94.0988 73.5952V73.8255V73.8842V73.899V73.9027V73.9037C94.0988 73.9039 94.0988 73.904 92.0988 73.904H94.0988C94.0988 75.8182 93.6945 77.6034 92.8197 79.1863L92.8189 79.1877C91.9156 80.8191 90.5652 82.1383 88.8355 83.1392L88.8328 83.1407C83.9086 85.9796 78.985 88.8135 74.0621 91.647C67.2524 95.5664 60.4443 99.485 53.6384 103.415L53.6382 103.415C51.798 104.477 49.8907 105.04 47.9214 105.015C45.9555 104.99 44.0667 104.38 42.2566 103.312C39.4447 101.653 29.8338 96.1287 21.1157 91.1176C15.3831 87.8225 10.0366 84.7494 7.26292 83.1429C5.53397 82.142 4.18337 80.8236 3.27991 79.1905C2.40325 77.6068 2 75.8207 2 73.9078V73.9071C2.00224 67.1074 2.00224 60.3077 2.00224 53.5076C2.00224 46.7077 2.00224 39.9074 2.00448 33.107L94.0943 33.1097ZM94.0943 33.1097C94.0935 31.1552 93.6733 29.3321 92.7554 27.7224C91.8521 26.1363 90.5213 24.8541 88.8323 23.876L88.8291 23.8741M94.0943 33.1097L88.8291 23.8741M88.8291 23.8741C83.7989 20.9737 78.7694 18.0787 73.7406 15.184C67.0381 11.326 60.3369 7.4687 53.6374 3.60054L53.6373 3.6005M88.8291 23.8741L53.6373 3.6005M53.6373 3.6005C51.7974 2.53829 49.8903 1.97548 47.9213 2.00082M53.6373 3.6005L47.9213 2.00082M47.9213 2.00082C45.956 2.02611 44.0677 2.63549 42.2584 3.70286M47.9213 2.00082L42.2584 3.70286M42.2584 3.70286C39.4549 5.35603 29.8983 10.8499 21.2038 15.8481M42.2584 3.70286L21.2038 15.8481M21.2038 15.8481C15.4395 19.1619 10.0542 22.2577 7.26693 23.8722L21.2038 15.8481ZM7.26668 23.8723C3.75493 25.9058 2.00538 29.1218 2.00448 33.1068L7.26668 23.8723Z" fill="#A179DC" stroke="white" stroke-width="4"/>
<path d="M48.1843 53.375L5.03003 78.2223C5.7377 79.5015 6.81178 80.5707 8.26537 81.4121C15.2304 85.4462 38.6058 98.8356 43.273 101.589C46.4118 103.442 49.4765 103.508 52.6385 101.683C64.3634 94.9126 76.1038 88.1707 87.8339 81.408C89.2875 80.5669 90.3616 79.497 91.0693 78.2188L48.1843 53.375Z" fill="#280068"/>
<path d="M92.0945 33.1105C92.0938 31.4456 91.7378 29.9744 91.0177 28.7122L48.1843 53.3754L91.0694 78.219C91.7567 76.9753 92.0983 75.5328 92.099 73.9041C92.099 73.9041 92.099 46.711 92.0945 33.1105Z" fill="#390091"/>
<path d="M73.5919 44.0864V48.7309H78.2364V44.0864H80.5586V48.7309H85.2031V51.0531H80.5586V55.6973H85.2031V58.0195H80.5586V62.664H78.2364V58.0195H73.5919V62.664H71.2696V58.0195H66.6255V55.6973H71.2696V51.0531H66.6255V48.7309H71.2696V44.0864H73.5919ZM78.2364 51.0528H73.5919V55.6973H78.2364V51.0528Z" fill="white"/>
<path d="M48.279 20.7613C60.3931 20.7613 70.9695 27.3403 76.6346 37.1194L76.5794 37.0253L62.3261 45.2319C59.5182 40.4775 54.3705 37.2686 48.4648 37.2025L48.2786 37.2014C39.2734 37.2014 31.9726 44.5022 31.9726 53.5074C31.9697 56.3458 32.7112 59.1353 34.1232 61.5975C36.9339 66.5043 42.2178 69.8138 48.279 69.8138C54.3777 69.8138 59.6916 66.4623 62.4878 61.5031L62.4199 61.622L76.6515 69.8665C71.0484 79.5629 60.6168 86.1215 48.6437 86.2522L48.279 86.2542C36.1266 86.2542 25.5202 79.6346 19.8692 69.8038C17.1106 65.0045 15.5322 59.4408 15.5322 53.5074C15.5322 35.4224 30.193 20.761 48.2786 20.761L48.279 20.7613Z" fill="white"/>
</svg>
