<svg width="79" height="100" viewBox="0 0 79 100" fill="none" xmlns="http://www.w3.org/2000/svg">
<path d="M37.2064 24.6666V2H49.5478V73.2336C42.0945 74.576 36.4325 75.1041 30.3504 75.1042C20.6287 75.094 13.585 72.9129 8.99249 68.9696C4.45454 65.0731 2 59.1864 2 51.0417C2 43.2501 4.59146 36.995 9.03688 32.6861C13.4884 28.3713 19.9804 25.8333 28.0979 25.8333C30.6135 25.8333 32.4617 26.0283 34.7102 26.6041L37.2064 27.2434V24.6666ZM36.0444 66.1276L37.779 65.8954V64.1453V38.1641H35.779L36.4 36.2629C34.2561 35.5627 32.4655 35.3307 30.2688 35.3307C25.723 35.3307 21.8835 36.7282 19.1937 39.5849C16.52 42.4245 15.2296 46.4434 15.2296 51.2076C15.2296 55.8465 16.4634 59.7514 19.1199 62.4995C21.7868 65.2584 25.6047 66.5597 30.1639 66.5597C32.0768 66.5597 33.6391 66.4497 36.0444 66.1276Z" fill="#2BA977" stroke="white" stroke-width="4"/>
<path d="M72.697 86.8867L72.6913 86.8975L72.6858 86.9083C70.3843 91.3789 67.4288 94.3037 61.078 97.577L50.5095 92.5967C55.5931 89.7913 58.6126 86.8806 60.6694 82.7148C63.2422 77.6143 63.9501 71.7988 63.9501 57.761V27.8444H76.2706V63.3445C76.2706 76.2219 75.2889 81.9988 72.697 86.8867ZM62.3034 2H74.6447V14.6042H62.3034V2Z" fill="#2BA977" stroke="white" stroke-width="4"/>
</svg>
