<svg width="100" height="86" viewBox="0 0 100 86" fill="none" xmlns="http://www.w3.org/2000/svg">
<path d="M96.082 65.7652C90.7453 68.5469 63.1 79.9137 57.2145 82.982C51.3289 86.0508 48.0594 86.0211 43.4098 83.7984C38.7605 81.5758 9.34102 69.6922 4.04141 67.159C1.39297 65.8934 0 64.8246 0 63.8152V53.7074C0 53.7074 38.3008 45.3695 44.484 43.1512C50.6668 40.9328 52.8121 40.8527 58.0738 42.7801C63.3363 44.7082 94.7996 50.3848 100 52.2894L99.9977 62.2543C99.9984 63.2535 98.7984 64.3496 96.082 65.7652" fill="#912626"/>
<path d="M96.08 55.7172C90.7437 58.4977 63.0991 69.8648 57.2136 72.9328C51.3284 76.0019 48.0589 75.9719 43.4097 73.7492C38.7601 71.5281 9.34171 59.6426 4.04249 57.1109C-1.25673 54.5777 -1.36767 52.8344 3.8378 50.7961C9.04327 48.757 38.3003 37.2785 44.4843 35.0602C50.6671 32.8426 52.812 32.7618 58.0737 34.6899C63.3359 36.6172 90.8155 47.5551 96.0151 49.4594C101.217 51.366 101.416 52.936 96.08 55.7172" fill="#C6302B"/>
<path d="M96.082 49.4101C90.7453 52.1922 63.1 63.5586 57.2145 66.6281C51.3289 69.6957 48.0594 69.666 43.4098 67.4433C38.7602 65.2218 9.34102 53.3371 4.04141 50.8039C1.39297 49.5383 0 48.4711 0 47.4613V37.3523C0 37.3523 38.3008 29.0148 44.484 26.7965C50.6668 24.5781 52.8121 24.4976 58.0738 26.4254C63.3367 28.3531 94.8 34.0285 100 35.9336L99.9977 45.8996C99.9984 46.8984 98.7984 47.9945 96.082 49.4101Z" fill="#912626"/>
<path d="M96.08 39.3621C90.7437 42.1433 63.0991 53.5097 57.2136 56.5788C51.3284 59.6468 48.0589 59.6167 43.4097 57.3941C38.7601 55.173 9.34171 43.2878 4.04249 40.7558C-1.25673 38.2234 -1.36767 36.4796 3.8378 34.4406C9.04327 32.4027 38.3007 20.9234 44.4843 18.7054C50.6671 16.4874 52.812 16.407 58.0737 18.3347C63.3359 20.2621 90.8155 31.1992 96.0151 33.1042C101.217 35.0105 101.416 36.5808 96.08 39.3621" fill="#C6302B"/>
<path d="M96.082 32.4488C90.7453 35.2301 63.1 46.5973 57.2145 49.6668C51.3289 52.7348 48.0594 52.7047 43.4098 50.482C38.7602 48.2605 9.34102 36.3754 4.04141 33.8433C1.39297 32.5765 0 31.509 0 30.5004V20.391C0 20.391 38.3008 12.0538 44.484 9.83587C50.6668 7.61712 52.8121 7.53743 58.0738 9.46478C63.3367 11.3925 94.8 17.0679 100 18.973L99.9977 28.9386C99.9984 29.9367 98.7984 31.0328 96.082 32.4488Z" fill="#912626"/>
<path d="M96.08 22.4008C90.7437 25.182 63.0992 36.5492 57.2136 39.6172C51.3285 42.6852 48.0589 42.6551 43.4097 40.4336C38.7605 38.211 9.34176 26.3266 4.04293 23.7941C-1.25668 21.2621 -1.36723 19.518 3.83785 17.4793C9.04332 15.441 38.3007 3.96328 44.4843 1.74452C50.6671 -0.473837 52.8121 -0.553524 58.0738 1.37421C63.3359 3.30195 90.8156 14.2391 96.0152 16.1441C101.217 18.0488 101.416 19.6195 96.08 22.4008" fill="#C6302B"/>
<path d="M62.22 12.5675L53.6223 13.4601L51.6977 18.0913L48.5891 12.9234L38.6613 12.0312L46.0692 9.35969L43.8465 5.25891L50.7821 7.97141L57.3203 5.83079L55.5532 10.071L62.22 12.5675V12.5675ZM51.1844 35.0354L35.1387 28.3804L58.1309 24.8511L51.1844 35.0354V35.0354ZM28.9383 15.1417C35.7254 15.1417 41.2273 17.2745 41.2273 19.905C41.2273 22.5362 35.7254 24.6686 28.9383 24.6686C22.1511 24.6686 16.6492 22.5358 16.6492 19.905C16.6492 17.2745 22.1511 15.1417 28.9383 15.1417Z" fill="white"/>
<path d="M72.3809 13.8335L85.9887 19.2109L72.3926 24.5832L72.3809 13.8331" fill="#621B1C"/>
<path d="M57.3262 19.7887L72.3809 13.8336L72.3926 24.5833L70.9164 25.1606L57.3262 19.7887Z" fill="#9A2928"/>
</svg>
