<svg width="100" height="60" viewBox="0 0 100 60" fill="none" xmlns="http://www.w3.org/2000/svg">
<path d="M98.8661 12.1835C97.1585 17.6194 94.5082 21.7466 90.938 24.602C86.8802 27.8474 81.5824 29.4912 75.0006 29.4912C68.8885 29.4912 64.4582 28.0734 60.9564 26.0575C57.4431 24.035 54.8432 21.4001 52.3882 18.9087L52.3881 18.9087L52.3297 18.8495C49.3633 15.8398 46.5592 12.9947 42.6209 12.0108C39.1911 11.1539 35.9536 11.3651 32.928 12.6612C30.5069 13.6985 28.2436 15.4208 26.1335 17.8067C27.8415 12.3712 30.4918 8.24429 34.062 5.38907C38.1198 2.14382 43.4177 0.5 50 0.5C56.1116 0.5 60.5418 1.91778 64.0437 3.9337C67.5572 5.95625 70.1575 8.59113 72.6125 11.0825L72.6125 11.0825L72.6709 11.1418C75.6374 14.1514 78.4415 16.9964 82.3785 17.9804L82.4997 17.4953L82.3785 17.9804C85.8089 18.8373 89.0467 18.6258 92.0723 17.3293C94.4934 16.2919 96.7565 14.5693 98.8661 12.1835ZM17.6217 42.0033L17.6216 42.0033C14.1912 41.1457 10.9533 41.3569 7.9277 42.6532C5.50658 43.6906 3.24355 45.413 1.13389 47.7989C2.84152 42.3629 5.49183 38.2358 9.06199 35.3804C13.1198 32.135 18.4177 30.4912 24.9994 30.4912C31.1115 30.4912 35.5418 31.9093 39.0435 33.9255C42.5569 35.9484 45.1568 38.5835 47.6119 41.0749L47.612 41.075L47.6773 41.1413C50.641 44.147 53.444 46.9897 57.3793 47.9716C60.809 48.8291 64.0464 48.6179 67.072 47.3216C69.4932 46.2842 71.7565 44.5617 73.8666 42.1757C72.1586 47.6118 69.5082 51.739 65.938 54.5944C61.8802 57.8398 56.5824 59.4836 50 59.4836C43.8885 59.4836 39.4583 58.0656 35.9563 56.0493C32.4428 54.0265 29.8426 51.3913 27.3875 48.8999L27.3874 48.8998L27.3295 48.841C24.3628 45.8324 21.5587 42.9885 17.6217 42.0033Z" fill="#00DAFF" stroke="white"/>
</svg>
