<svg width="108" height="108" viewBox="0 0 108 108" fill="none" xmlns="http://www.w3.org/2000/svg">
<rect x="2" y="2.00049" width="104" height="104" stroke="white" stroke-width="4"/>
<path d="M4 4.00049H104V104H4V4.00049Z" fill="#017ACB"/>
<path d="M52.0157 41.0317H56.8126V49.313H43.8438V86.1567L43.5 86.2505C43.0313 86.3755 36.8594 86.3755 35.5313 86.2349L34.4688 86.1411V49.313H21.5V41.0317L25.6094 40.9849C27.8594 40.9536 33.6406 40.9536 38.4532 40.9849C43.2657 41.0161 49.3594 41.0317 52.0157 41.0317ZM88.6251 82.2505C86.7189 84.2661 84.672 85.3911 81.2657 86.313C79.7813 86.7192 79.5313 86.7349 76.1876 86.7192C72.8438 86.7036 72.5782 86.7036 70.9532 86.2817C66.7501 85.2036 63.3594 83.0942 61.0469 80.1099C60.3907 79.2661 59.3126 77.5161 59.3126 77.2974C59.3126 77.2349 59.4688 77.0942 59.6719 77.0005C59.8751 76.9067 60.2969 76.6411 60.6407 76.438C60.9844 76.2349 61.6094 75.8599 62.0313 75.6411C62.4532 75.4224 63.6719 74.7036 64.7345 74.063C65.797 73.4224 66.7657 72.9067 66.8751 72.9067C66.9845 72.9067 67.1876 73.1255 67.3438 73.3911C68.2813 74.9692 70.4688 76.9849 72.0157 77.6724C72.9688 78.0786 75.0782 78.5317 76.0938 78.5317C77.0313 78.5317 78.7501 78.1255 79.672 77.7036C80.6563 77.2505 81.1564 76.7974 81.7501 75.8911C82.1564 75.2505 82.2032 75.0786 82.1876 73.8599C82.1876 72.7349 82.1251 72.4224 81.8126 71.9067C80.9376 70.4692 79.7501 69.7192 74.9376 67.5942C69.9688 65.3911 67.7345 64.0786 65.9219 62.313C64.5782 61.0005 64.3126 60.6411 63.4688 59.0005C62.3751 56.8911 62.2344 56.2036 62.2188 53.063C62.2032 50.8599 62.2501 50.1411 62.4844 49.3911C62.8126 48.2661 63.8751 46.0942 64.3594 45.5474C65.3594 44.3755 65.7188 44.0161 66.422 43.438C68.547 41.688 71.8595 40.5317 75.0313 40.4224C75.3907 40.4224 76.5782 40.4849 77.6876 40.563C80.8751 40.8286 83.047 41.6099 85.1407 43.2817C86.7189 44.5317 89.1095 47.4692 88.8751 47.8599C88.7189 48.0942 82.4845 52.2505 82.0782 52.3755C81.8282 52.4536 81.6564 52.3599 81.3126 51.9536C79.1876 49.4067 78.3282 48.8599 76.2657 48.7349C74.797 48.6411 74.0157 48.813 73.0313 49.4692C72.0001 50.1567 71.5001 51.2036 71.5001 52.6567C71.5157 54.7817 72.3282 55.7817 75.3282 57.2661C77.2657 58.2192 78.922 59.0005 79.047 59.0005C79.2345 59.0005 83.2501 61.0005 84.297 61.6255C89.172 64.4849 91.1564 67.4224 91.672 72.4849C92.047 76.2974 90.9689 79.7817 88.6251 82.2505Z" fill="white"/>
</svg>
