<svg width="184" height="36" viewBox="0 0 184 36" fill="none" xmlns="http://www.w3.org/2000/svg">
<path d="M30.8608 33.1739H30.859H20.5751L15.4341 24.2631H25.7179L30.8571 15.3615L36 24.2668L30.8608 33.1739ZM10.2875 24.2631L15.4267 15.3615H5.14286L0.00366178 24.2631L0 24.2668L5.14286 33.1739H15.4267H15.4304L10.2875 24.2631ZM23.1419 2L28.2848 10.9053L23.1456 19.8087L18.0046 10.8998H7.72069L12.8581 2H23.1419Z" fill="#AC6AFF"/>
<path d="M52.75 7.94C54.97 7.94 56.91 8.38 58.57 9.26C60.23 10.14 61.51 11.38 62.41 12.98C63.33 14.56 63.79 16.39 63.79 18.47C63.79 20.53 63.33 22.36 62.41 23.96C61.51 25.56 60.22 26.8 58.54 27.68C56.88 28.56 54.95 29 52.75 29H44.86V7.94H52.75ZM52.42 24.56C54.36 24.56 55.87 24.03 56.95 22.97C58.03 21.91 58.57 20.41 58.57 18.47C58.57 16.53 58.03 15.02 56.95 13.94C55.87 12.86 54.36 12.32 52.42 12.32H49.99V24.56H52.42ZM81.8369 20.36C81.8369 20.84 81.8069 21.34 81.7469 21.86H70.1369C70.2169 22.9 70.5469 23.7 71.1269 24.26C71.7269 24.8 72.4569 25.07 73.3169 25.07C74.5969 25.07 75.4869 24.53 75.9869 23.45H81.4469C81.1669 24.55 80.6569 25.54 79.9169 26.42C79.1969 27.3 78.2869 27.99 77.1869 28.49C76.0869 28.99 74.8569 29.24 73.4969 29.24C71.8569 29.24 70.3969 28.89 69.1169 28.19C67.8369 27.49 66.8369 26.49 66.1169 25.19C65.3969 23.89 65.0369 22.37 65.0369 20.63C65.0369 18.89 65.3869 17.37 66.0869 16.07C66.8069 14.77 67.8069 13.77 69.0869 13.07C70.3669 12.37 71.8369 12.02 73.4969 12.02C75.1169 12.02 76.5569 12.36 77.8169 13.04C79.0769 13.72 80.0569 14.69 80.7569 15.95C81.4769 17.21 81.8369 18.68 81.8369 20.36ZM76.5869 19.01C76.5869 18.13 76.2869 17.43 75.6869 16.91C75.0869 16.39 74.3369 16.13 73.4369 16.13C72.5769 16.13 71.8469 16.38 71.2469 16.88C70.6669 17.38 70.3069 18.09 70.1669 19.01H76.5869ZM91.4732 24.2L95.1032 12.26H100.563L94.6232 29H88.2932L82.3532 12.26H87.8432L91.4732 24.2ZM109.743 29.21C108.203 29.21 106.823 28.96 105.603 28.46C104.383 27.96 103.403 27.22 102.663 26.24C101.943 25.26 101.563 24.08 101.523 22.7H106.983C107.063 23.48 107.333 24.08 107.793 24.5C108.253 24.9 108.853 25.1 109.593 25.1C110.353 25.1 110.953 24.93 111.393 24.59C111.833 24.23 112.053 23.74 112.053 23.12C112.053 22.6 111.873 22.17 111.513 21.83C111.173 21.49 110.743 21.21 110.223 20.99C109.723 20.77 109.003 20.52 108.063 20.24C106.703 19.82 105.593 19.4 104.733 18.98C103.873 18.56 103.133 17.94 102.513 17.12C101.893 16.3 101.583 15.23 101.583 13.91C101.583 11.95 102.293 10.42 103.713 9.32C105.133 8.2 106.983 7.64 109.263 7.64C111.583 7.64 113.453 8.2 114.873 9.32C116.293 10.42 117.053 11.96 117.153 13.94H111.603C111.563 13.26 111.313 12.73 110.853 12.35C110.393 11.95 109.803 11.75 109.083 11.75C108.463 11.75 107.963 11.92 107.583 12.26C107.203 12.58 107.013 13.05 107.013 13.67C107.013 14.35 107.333 14.88 107.973 15.26C108.613 15.64 109.613 16.05 110.973 16.49C112.333 16.95 113.433 17.39 114.273 17.81C115.133 18.23 115.873 18.84 116.493 19.64C117.113 20.44 117.423 21.47 117.423 22.73C117.423 23.93 117.113 25.02 116.493 26C115.893 26.98 115.013 27.76 113.853 28.34C112.693 28.92 111.323 29.21 109.743 29.21ZM118.96 20.63C118.96 18.89 119.31 17.37 120.01 16.07C120.73 14.77 121.72 13.77 122.98 13.07C124.26 12.37 125.72 12.02 127.36 12.02C129.46 12.02 131.21 12.57 132.61 13.67C134.03 14.77 134.96 16.32 135.4 18.32H129.94C129.48 17.04 128.59 16.4 127.27 16.4C126.33 16.4 125.58 16.77 125.02 17.51C124.46 18.23 124.18 19.27 124.18 20.63C124.18 21.99 124.46 23.04 125.02 23.78C125.58 24.5 126.33 24.86 127.27 24.86C128.59 24.86 129.48 24.22 129.94 22.94H135.4C134.96 24.9 134.03 26.44 132.61 27.56C131.19 28.68 129.44 29.24 127.36 29.24C125.72 29.24 124.26 28.89 122.98 28.19C121.72 27.49 120.73 26.49 120.01 25.19C119.31 23.89 118.96 22.37 118.96 20.63ZM142.674 15.05C143.274 14.13 144.024 13.41 144.924 12.89C145.824 12.35 146.824 12.08 147.924 12.08V17.51H146.514C145.234 17.51 144.274 17.79 143.634 18.35C142.994 18.89 142.674 19.85 142.674 21.23V29H137.544V12.26H142.674V15.05ZM157.396 29.24C155.756 29.24 154.276 28.89 152.956 28.19C151.656 27.49 150.626 26.49 149.866 25.19C149.126 23.89 148.756 22.37 148.756 20.63C148.756 18.91 149.136 17.4 149.896 16.1C150.656 14.78 151.696 13.77 153.016 13.07C154.336 12.37 155.816 12.02 157.456 12.02C159.096 12.02 160.576 12.37 161.896 13.07C163.216 13.77 164.256 14.78 165.016 16.1C165.776 17.4 166.156 18.91 166.156 20.63C166.156 22.35 165.766 23.87 164.986 25.19C164.226 26.49 163.176 27.49 161.836 28.19C160.516 28.89 159.036 29.24 157.396 29.24ZM157.396 24.8C158.376 24.8 159.206 24.44 159.886 23.72C160.586 23 160.936 21.97 160.936 20.63C160.936 19.29 160.596 18.26 159.916 17.54C159.256 16.82 158.436 16.46 157.456 16.46C156.456 16.46 155.626 16.82 154.966 17.54C154.306 18.24 153.976 19.27 153.976 20.63C153.976 21.97 154.296 23 154.936 23.72C155.596 24.44 156.416 24.8 157.396 24.8ZM173.407 6.8V29H168.277V6.8H173.407ZM181.655 6.8V29H176.525V6.8H181.655Z" fill="white"/>
</svg>
