<svg width="80" height="46" viewBox="0 0 80 46" fill="none" xmlns="http://www.w3.org/2000/svg">
<path d="M22.1925 0.838465C20.8752 0.179827 19.2734 0.713758 18.6148 2.03103C17.9562 3.34831 18.4901 4.9501 19.8074 5.60874C21.1246 6.26738 22.7264 5.73345 23.3851 4.41617C24.0437 3.0989 23.5098 1.4971 22.1925 0.838465ZM4.19251 36.8385C2.87524 36.1798 1.27344 36.7138 0.614804 38.031C-0.0438342 39.3483 0.490097 40.9501 1.80737 41.6087C3.12465 42.2674 4.72644 41.7334 5.38508 40.4162C6.04372 39.0989 5.50979 37.4971 4.19251 36.8385ZM20.9999 23.5L21.3289 23.8766L21.4999 23.7271L21.4999 23.5L20.9999 23.5ZM20.4999 3.2236L20.4999 23.5L21.4999 23.5L21.4999 3.2236L20.4999 3.2236ZM20.671 23.1234L2.671 38.847L3.32888 39.6002L21.3289 23.8766L20.671 23.1234Z" fill="#252134"/>
<path d="M55.2832 0.654935C53.988 1.35609 53.5065 2.97442 54.2077 4.26956C54.9088 5.5647 56.5271 6.04622 57.8223 5.34506C59.1174 4.64391 59.599 3.02558 58.8978 1.73044C58.1966 0.435297 56.5783 -0.046223 55.2832 0.654935ZM75.7304 39.1549C74.4353 39.8561 73.9538 41.4744 74.6549 42.7696C75.3561 44.0647 76.9744 44.5462 78.2696 43.8451C79.5647 43.1439 80.0462 41.5256 79.3451 40.2304C78.6439 38.9353 77.0256 38.4538 75.7304 39.1549ZM57.5 23.5L57.0005 23.5231L57.01 23.7282L57.1609 23.8674L57.5 23.5ZM56.0533 3.02308L57.0005 23.5231L57.9995 23.4769L57.0522 2.97692L56.0533 3.02308ZM57.1609 23.8674L76.6609 41.8674L77.3391 41.1326L57.8391 23.1326L57.1609 23.8674Z" fill="#252134"/>
</svg>
