<svg xmlns="http://www.w3.org/2000/svg" viewBox="0 0 24 24" width="24" height="24">
  <path d="M22.23 0H1.77C.79 0 0 .8 0 1.77v20.46C0 23.2.8 24 1.77 24h20.46c.98 0 1.77-.8 1.77-1.77V1.77C24 .8 23.2 0 22.23 0zM7.12 20.45H3.56V9h3.56v11.45zM5.34 7.47c-1.14 0-1.94-.75-1.94-1.7 0-.96.81-1.7 2-1.7 1.18 0 1.94.74 1.96 1.7 0 .95-.78 1.7-2.02 1.7zm14.87 12.97h-3.56V15.2c0-1.32-.47-2.23-1.65-2.23-.9 0-1.44.6-1.68 1.18-.09.22-.12.53-.12.84v5.46H9.64s.05-8.85 0-9.78h3.56v1.38c.47-.73 1.3-1.77 3.16-1.77 2.31 0 4.05 1.51 4.05 4.76v5.86z" fill="#757185"/>
</svg>
